<?xml version="1.0" encoding="UTF-8"?><svg id="Layer_2" xmlns="http://www.w3.org/2000/svg" viewBox="0 0 400 400"><defs><style>.cls-1{fill:#fcfcfd;}.cls-1,.cls-2{stroke-width:0px;}.cls-2{fill:#1a1998;}</style></defs><g id="Layer_1-2"><path class="cls-2" d="M0,400C0,267.99-.01,135.98.17,3.97c0-1.34,2.5-3.83,3.83-3.83C134.68-.04,265.35-.04,396.03.13c1.34,0,3.83,2.5,3.83,3.83.18,130.68.18,261.35,0,392.03,0,1.34-2.5,3.83-3.83,3.83-131.84.18-263.69.17-396.03.17ZM128.31,109.85h-62.99c45.19,67.84,89.93,135.02,134.45,201.86h87.84v-151.37h-50.74v112.45c-36.77-55.19-72.75-109.19-108.56-162.94Z"/><path class="cls-1" d="M128.31,109.85c35.81,53.75,71.79,107.75,108.56,162.94v-112.45h50.74v151.37h-87.84c-44.52-66.85-89.27-134.02-134.45-201.86h62.99Z"/></g></svg>